<?xml version="1.0" standalone="no"?>
<!DOCTYPE svg PUBLIC "-//W3C//DTD SVG 20010904//EN"
 "http://www.w3.org/TR/2001/REC-SVG-20010904/DTD/svg10.dtd">
<svg version="1.0" xmlns="http://www.w3.org/2000/svg"
 width="100.000000pt" height="37.000000pt" viewBox="0 0 100.000000 37.000000"
 preserveAspectRatio="xMidYMid meet">
 
 <defs><style>.cls-1{fill:#02073E;}</style></defs><path class="cls-1" d="M35.33,26.66a3.39,3.39,0,0,1-.39-1.61v-5a4.7,4.7,0,0,0-1.5-3.52,5.13,5.13,0,0,0-7.19,0,4.76,4.76,0,0,0-1.48,3.52,4.85,4.85,0,0,0,1.48,3.54,5,5,0,0,0,3.6,1.45h1.48a3.53,3.53,0,0,1,3.31,2.12,3.41,3.41,0,0,1,.3,1.4H29.85a8.5,8.5,0,0,1-7-3.52,8.18,8.18,0,0,1-1.64-5,8.07,8.07,0,0,1,2.54-6,8.44,8.44,0,0,1,6.15-2.49h.44c.31,0,.63,0,.93.1a6.84,6.84,0,0,1,1,.21,6.73,6.73,0,0,1,.93.32,9.4,9.4,0,0,1,1.74,1l0,0A8.84,8.84,0,0,1,36,14a8.1,8.1,0,0,1,2.53,6v8.51A3.5,3.5,0,0,1,35.33,26.66Z"/><path class="cls-1" d="M41.22,20.06a8.1,8.1,0,0,1,2.53-6,8.84,8.84,0,0,1,12.3,0,8.07,8.07,0,0,1,2.54,6,8.12,8.12,0,0,1-2.54,6,8.73,8.73,0,0,1-3.46,2.08,9,9,0,0,1-2.69.41H45.83a3.52,3.52,0,0,1,1.05-2.51,3.56,3.56,0,0,1,2.56-1h.46a5,5,0,0,0,3.6-1.45,4.93,4.93,0,0,0,0-7,5.13,5.13,0,0,0-7.19,0,4.76,4.76,0,0,0-1.48,3.52V32.38a3.36,3.36,0,0,1-1.06,2.49,3.52,3.52,0,0,1-2.55,1Z"/><path class="cls-1" d="M59.84,28.57a3.36,3.36,0,0,1,1.06-2.49,3.53,3.53,0,0,1,2.54-1h1.64a1.61,1.61,0,1,0,0-3.22,5,5,0,0,1-1.64-.27,5.19,5.19,0,0,1-2.31-1.5,5.07,5.07,0,0,1,.23-7,5.14,5.14,0,0,1,3.72-1.51h5.26a3.27,3.27,0,0,1-.88,2.29,3.49,3.49,0,0,1-2.73,1.25H65.08a1.61,1.61,0,0,0-1.64,1.59,1.62,1.62,0,0,0,1.64,1.61,5,5,0,0,1,4,1.77,4.82,4.82,0,0,1,1.31,3.38,4.88,4.88,0,0,1-1.54,3.62,5.14,5.14,0,0,1-3.72,1.51Z"/><path class="cls-1" d="M87.19,26.66A3.53,3.53,0,0,1,86.8,25c0-3.43,0-5.2,0-5.32a5.11,5.11,0,0,0-8.67-3.17,4.76,4.76,0,0,0-1.48,3.52v5a3.43,3.43,0,0,1-.41,1.63A3.49,3.49,0,0,1,73,28.57V3.51a3.52,3.52,0,0,1,2.56,1,3.39,3.39,0,0,1,1,2.48v6.13a8.13,8.13,0,0,1,1.16-.7,8.91,8.91,0,0,1,9,.65,8.28,8.28,0,0,1,1.11.93,8.1,8.1,0,0,1,2.53,6v8.51A3.5,3.5,0,0,1,87.19,26.66Zm-3.7-16.48a5.88,5.88,0,0,1,.36.51Z"/><path class="cls-1" d="M93.08,8.4a3.37,3.37,0,0,1,1-2.49,3.61,3.61,0,0,1,2.56-1V6.07a3.4,3.4,0,0,1-1.06,2.49,3.52,3.52,0,0,1-2.55,1Zm0,6.67a3.39,3.39,0,0,1,1-2.49,3.61,3.61,0,0,1,2.56-1V25a3.37,3.37,0,0,1-1.06,2.5,3.49,3.49,0,0,1-2.55,1Z"/><path class="cls-1" d="M19.19,18.08h0L13.75,18l1-1.16A21.92,21.92,0,0,0,12,11.76,52,52,0,0,0,7,7.45H7l-1,1.14L5,3.34H5l5.6.13-1,1.14a15.73,15.73,0,0,0,2.65,5.16,44.61,44.61,0,0,0,5,4.06h0l1-1.14,1,5.23Z"/><path class="cls-1" d="M10.24,16.61V28.66H9.17A3.67,3.67,0,0,1,5.46,25V11.14l1.4-1.4,2.8,2.36C11,13.23,10.24,14.88,10.24,16.61Z"/><path class="cls-1" d="M23.64,8.16v1.7H16.79c-1.76,0-3.35.23-4-1.72l-.94-2.42H21.6A2.26,2.26,0,0,1,23.64,8.16Z"/></svg>